<?xml version="1.0" standalone="no"?>
<!DOCTYPE svg PUBLIC "-//W3C//DTD SVG 20010904//EN"
 "http://www.w3.org/TR/2001/REC-SVG-20010904/DTD/svg10.dtd">
<svg version="1.0" xmlns="http://www.w3.org/2000/svg"
 width="700.000000pt" height="700.000000pt" viewBox="0 0 700.000000 700.000000"
 preserveAspectRatio="xMidYMid meet">
<metadata>
Created by potrace 1.11, written by Peter Selinger 2001-2013
</metadata>
<g transform="translate(0.000000,700.000000) scale(0.100000,-0.100000)"
fill="#000000" stroke="none">
<path d="M3891 6041 c-7 -5 -89 -8 -183 -9 -181 -1 -223 -6 -235 -27 -6 -9
-60 -16 -178 -25 -93 -7 -174 -15 -179 -18 -5 -3 -7 2 -3 11 6 15 -2 17 -53
17 -33 0 -77 -6 -97 -14 -21 -7 -71 -21 -112 -31 -60 -14 -77 -15 -96 -5 -13
7 -34 10 -47 7 -21 -6 -258 -157 -297 -190 -9 -8 -38 -22 -65 -32 -47 -17
-124 -82 -159 -134 -16 -24 -17 -24 -59 -8 -24 8 -95 27 -158 41 -63 14 -135
32 -160 41 -27 10 -106 20 -195 26 -82 5 -165 12 -184 15 -55 9 -71 -15 -71
-103 0 -42 -4 -73 -10 -73 -10 0 -11 11 -11 193 0 92 -3 108 -16 105 -13 -3
-15 -22 -14 -128 4 -295 12 -470 21 -495 5 -14 10 -42 10 -61 0 -81 78 -471
109 -549 27 -67 79 -175 99 -204 26 -40 26 -33 1 -146 -26 -121 -47 -288 -59
-470 -5 -82 -14 -199 -19 -260 -31 -331 -33 -557 -8 -815 9 -91 14 -212 12
-270 -2 -58 0 -123 5 -145 4 -22 11 -58 14 -80 10 -73 25 -145 36 -165 13 -24
13 -30 0 -30 -10 0 -80 135 -94 182 -4 13 -9 18 -12 11 -9 -20 25 -124 53
-167 14 -22 40 -52 57 -68 l31 -29 0 -202 c0 -126 4 -215 12 -237 6 -19 14
-47 17 -61 3 -14 15 -36 27 -50 11 -13 24 -29 27 -35 4 -5 36 -34 72 -64 70
-58 142 -95 169 -87 10 2 29 -2 42 -9 13 -7 32 -13 41 -14 9 0 33 -11 52 -24
19 -13 59 -31 88 -41 29 -9 60 -23 68 -30 32 -29 168 -75 220 -75 71 0 133 42
78 53 -13 2 -4 5 20 6 62 2 51 15 -25 31 -84 16 -150 51 -204 104 -41 43 -114
164 -104 174 3 3 18 -6 33 -20 38 -37 117 -74 251 -119 91 -31 130 -39 181
-39 36 1 75 1 87 1 12 0 25 4 28 9 10 17 -17 78 -37 83 -10 3 -21 13 -24 24
-3 10 -16 43 -29 73 -21 48 -39 123 -59 236 -12 71 23 38 83 -79 19 -37 51
-87 72 -112 20 -24 49 -65 63 -90 15 -25 31 -45 36 -45 6 0 10 -5 10 -12 0 -6
11 -26 25 -44 14 -18 25 -37 25 -42 0 -17 110 -112 138 -119 15 -3 65 -2 112
4 60 8 87 8 92 0 9 -14 90 20 156 67 29 20 55 36 59 36 5 0 19 10 33 21 14 11
70 52 125 92 55 39 108 78 119 87 76 61 156 132 184 164 24 28 37 36 53 31 27
-9 67 -49 108 -108 18 -27 39 -51 46 -53 7 -3 31 -31 53 -62 22 -31 53 -69 68
-83 16 -15 37 -36 47 -48 10 -12 22 -19 27 -16 6 3 10 0 10 -8 0 -8 27 -23 68
-37 l68 -23 94 41 c101 45 116 48 122 31 3 -8 9 -6 20 4 22 23 74 4 93 -33 14
-27 13 -29 -5 -35 -42 -13 -32 -66 19 -102 22 -15 98 -26 161 -24 19 1 78 13
130 27 52 13 114 29 136 35 24 6 65 30 100 59 33 28 73 59 89 71 37 27 111
128 138 189 18 38 20 63 19 165 -1 66 -7 147 -12 180 -15 90 -28 193 -45 365
-9 85 -20 159 -25 164 -15 15 -12 110 9 283 11 87 22 196 25 243 3 47 10 99
15 115 l10 30 -1 -30 c-3 -74 3 -146 11 -141 9 6 7 319 -2 346 -3 8 -10 92
-17 185 -7 94 -14 194 -17 223 -4 44 -2 52 12 52 9 0 13 5 10 10 -4 6 -9 8
-13 6 -4 -2 -7 30 -8 72 -1 71 -27 213 -44 237 -4 6 -10 24 -14 40 -23 105
-61 223 -77 241 -11 11 -19 27 -19 35 0 8 -7 22 -14 32 -11 15 -9 25 15 75 15
31 35 77 45 102 9 25 32 78 51 118 22 47 32 80 28 94 -4 11 0 37 8 57 8 20 20
61 27 91 6 30 16 65 22 77 8 17 8 26 -1 37 -10 12 -10 22 3 47 9 18 16 46 16
63 0 17 5 47 11 66 10 35 25 116 36 198 3 26 1 42 -5 42 -6 0 -13 -15 -15 -32
-2 -18 -5 -5 -5 30 -1 35 -7 73 -13 84 -6 11 -11 53 -11 94 1 44 -4 76 -11 82
-7 5 -76 12 -154 15 -122 6 -151 4 -205 -12 -35 -11 -114 -22 -178 -26 l-116
-7 -39 44 c-22 24 -54 64 -71 89 -35 51 -165 148 -235 175 -24 9 -51 22 -59
28 -17 13 -47 27 -100 45 -19 7 -64 23 -100 35 -120 43 -180 57 -253 62 -40 2
-92 6 -118 9 -25 2 -51 0 -58 -4z m1669 -466 c7 -9 10 -18 7 -21 -7 -8 -47 14
-47 26 0 15 26 12 40 -5z m-21 -65 c11 -24 11 -24 -3 -6 -9 11 -16 24 -16 30
0 12 5 7 19 -24z m-4182 -12 c-3 -8 -6 -5 -6 6 -1 11 2 17 5 13 3 -3 4 -12 1
-19z m1313 -552 c0 -59 46 -333 75 -446 13 -52 45 -180 70 -283 72 -298 118
-404 219 -511 42 -45 59 -57 73 -51 10 4 71 12 136 18 91 8 130 8 167 -2 42
-11 52 -10 74 4 33 22 396 36 396 15 0 -10 3 -10 15 0 23 19 58 4 83 -35 12
-19 22 -39 22 -44 0 -11 -136 -8 -164 4 -13 5 -35 -1 -74 -20 l-55 -28 -26 30
c-14 16 -31 38 -37 48 -6 11 -15 15 -22 11 -21 -13 -13 -41 23 -76 l35 -34
-21 -22 c-23 -24 -20 -54 4 -54 8 0 20 7 27 15 7 8 21 15 31 15 10 0 21 5 24
10 24 39 187 62 276 39 l54 -14 -50 -5 c-36 -4 -50 -9 -50 -20 0 -12 10 -14
45 -12 34 3 59 -3 97 -22 28 -14 58 -26 66 -26 9 0 25 -13 37 -30 21 -30 50
-41 50 -19 0 8 5 7 15 -1 9 -7 13 -21 10 -30 -4 -12 4 -25 23 -39 16 -11 37
-38 47 -58 10 -21 33 -69 51 -107 19 -39 34 -74 34 -80 0 -5 -18 -32 -41 -58
-41 -49 -46 -78 -12 -78 18 0 33 18 61 73 7 15 18 27 24 27 7 0 8 14 5 38 l-6
37 64 30 c36 17 65 33 65 38 0 13 28 7 34 -8 3 -8 12 -15 21 -15 18 0 19 -10
3 -63 -10 -34 -10 -41 5 -52 9 -7 17 -17 17 -23 0 -5 7 -12 15 -16 12 -4 15 5
15 50 0 48 3 56 25 66 14 6 25 15 25 19 0 14 77 32 104 25 17 -4 43 -30 71
-67 l45 -61 0 -89 0 -88 -42 -44 c-24 -24 -62 -65 -85 -90 -24 -26 -70 -60
-103 -77 -33 -17 -60 -35 -60 -40 0 -6 -10 -10 -22 -10 -12 0 -64 -27 -115
-60 -52 -33 -96 -60 -99 -60 -7 0 -69 -46 -113 -83 -19 -16 -53 -37 -76 -47
-60 -26 -191 -53 -220 -46 -19 5 -25 2 -25 -9 0 -9 -6 -17 -12 -20 -7 -2 -43
-13 -81 -24 -37 -12 -89 -23 -115 -26 -26 -2 -121 -11 -212 -20 -260 -25 -311
-27 -370 -16 -30 6 -133 11 -228 12 -128 0 -183 5 -209 15 -19 9 -38 13 -40
10 -3 -3 -14 -1 -24 5 -22 11 -97 23 -279 45 -69 8 -139 20 -155 28 -17 7 -46
17 -65 20 -49 11 -151 46 -176 61 -11 7 -31 15 -44 17 -23 3 -25 10 -37 98
-15 116 -17 400 -3 400 5 0 16 -10 25 -23 8 -12 35 -35 59 -51 25 -16 48 -37
52 -48 5 -18 8 -17 26 12 23 39 18 59 -14 53 -35 -7 -118 69 -118 108 0 16 -4
29 -10 29 -5 0 -10 10 -10 23 0 18 2 19 10 7 9 -13 11 -13 20 0 6 8 19 42 29
75 48 154 145 295 201 295 14 0 36 12 49 25 13 14 28 25 33 25 5 0 22 8 36 19
15 10 38 21 52 24 14 3 54 17 88 32 70 29 84 27 162 -20 72 -45 144 -36 87 10
-33 26 -34 38 -2 59 13 9 29 25 35 36 18 34 -17 38 -46 6 -14 -14 -35 -27 -47
-28 -28 -2 -144 -7 -178 -7 -15 -1 -32 -8 -40 -17 -15 -18 -179 -97 -187 -90
-7 8 106 76 126 76 23 0 48 25 34 34 -5 3 0 25 12 49 52 107 52 106 16 135
-27 24 -33 36 -40 97 -5 39 -9 100 -10 138 l0 67 65 0 c36 0 65 4 65 9 0 9
-48 21 -85 21 -43 0 -46 17 -29 166 8 76 19 147 24 156 6 10 10 30 10 45 1 44
28 147 42 158 8 6 12 25 10 48 -3 36 24 116 40 117 3 0 9 -8 11 -17 3 -12 5
-9 6 8 0 14 -5 31 -11 38 -11 11 -9 12 10 6 26 -7 31 15 8 34 -12 10 -9 23 17
80 34 79 57 85 57 17z m-453 -508 c-1 -60 12 -306 19 -345 5 -28 3 -33 -28
-46 -18 -8 -45 -18 -60 -21 -14 -3 -34 -9 -44 -13 -15 -6 -16 -1 -10 53 4 32
9 75 12 94 9 57 99 320 109 320 2 0 3 -19 2 -42z m33 -449 c0 -35 42 -110 55
-99 8 6 15 -1 23 -24 11 -30 67 -94 114 -128 15 -11 16 -19 7 -53 -6 -22 -18
-49 -27 -60 -25 -30 -102 -90 -143 -111 -20 -11 -60 -46 -89 -79 -47 -53 -69
-69 -143 -107 -11 -5 -21 -7 -24 -4 -3 2 0 53 7 111 8 80 8 110 0 120 -9 10
-9 28 -1 67 6 29 18 114 26 188 9 74 20 142 24 150 9 19 95 49 139 50 26 0 32
-4 32 -21z m1885 -329 c38 -11 85 -27 103 -36 33 -16 34 -17 27 -62 -4 -26 -9
-50 -12 -54 -9 -15 -35 -7 -106 33 -79 44 -121 82 -132 117 -5 19 -3 22 22 22
15 0 59 -9 98 -20z m250 -125 c60 -43 165 -146 165 -163 0 -5 -6 -9 -12 -9 -7
0 -44 -3 -81 -7 l-68 -8 -59 62 c-57 59 -60 64 -51 94 6 17 13 44 16 59 6 31
4 32 90 -28z m-2408 -77 c-3 -8 -6 -5 -6 6 -1 11 2 17 5 13 3 -3 4 -12 1 -19z
m2583 -135 c0 -15 2 -16 10 -3 9 13 13 11 30 -10 46 -58 -10 -114 -107 -108
-44 3 -46 4 -63 51 l-18 48 24 10 c14 5 35 9 47 9 12 0 29 5 37 10 23 15 40
12 40 -7z m-2495 -23 c3 -5 -3 -10 -14 -10 -12 0 -21 5 -21 10 0 6 6 10 14 10
8 0 18 -4 21 -10z m-35 -44 c0 -3 -4 -8 -10 -11 -5 -3 -10 -1 -10 4 0 6 5 11
10 11 6 0 10 -2 10 -4z m-17 -108 l-18 -33 -3 30 c-3 19 2 33 15 42 25 19 28
1 6 -39z m2487 18 c0 -3 -4 -8 -10 -11 -5 -3 -10 -1 -10 4 0 6 5 11 10 11 6 0
10 -2 10 -4z m-2785 -91 c20 -8 38 -22 42 -32 3 -10 14 -27 24 -38 15 -17 18
-48 22 -235 3 -118 9 -223 13 -234 6 -16 4 -17 -17 -11 -34 10 -36 15 -17 29
16 11 13 15 -25 36 -58 33 -137 109 -137 132 0 13 -9 20 -31 25 -20 4 -34 14
-40 30 -13 34 -11 101 2 105 7 2 13 24 14 48 1 25 11 64 24 88 17 34 26 42 41
37 16 -5 20 -2 20 14 0 25 18 26 65 6z m325 -705 c12 -8 11 -10 -7 -10 -13 0
-23 5 -23 10 0 13 11 13 30 0z m155 -45 l30 -13 -31 -1 c-17 -1 -37 6 -44 14
-16 20 3 20 45 0z m-668 -97 c-3 -7 -5 -2 -5 12 0 14 2 19 5 13 2 -7 2 -19 0
-25z m1901 -211 c-1 -135 0 -146 25 -199 15 -31 32 -58 39 -60 14 -5 3 -25
-75 -132 -28 -38 -53 -64 -55 -57 -2 6 -9 11 -17 11 -7 0 -18 7 -25 16 -30 35
-123 56 -242 55 -75 -1 -73 -2 -81 67 l-5 42 34 0 c27 0 36 5 43 23 5 13 16
29 25 36 9 7 16 24 16 36 0 40 11 55 40 55 20 0 52 18 104 60 119 96 169 148
163 171 -3 10 -1 19 3 19 5 0 8 -64 8 -143z"/>
<path d="M2556 4704 c-4 -14 -5 -28 -3 -31 3 -2 8 8 11 23 4 14 5 28 3 31 -3
2 -8 -8 -11 -23z"/>
<path d="M2381 3439 c-49 -30 -32 -33 30 -5 42 19 48 25 29 25 -14 1 -40 -8
-59 -20z"/>
<path d="M3880 3424 c-47 -8 -79 -9 -84 -3 -6 5 -17 9 -25 9 -20 0 -90 -80
-96 -110 -3 -14 -13 -47 -22 -75 -24 -76 -28 -172 -9 -237 12 -43 28 -67 71
-110 64 -63 91 -72 202 -63 38 3 99 7 136 9 64 2 94 16 81 37 -2 4 9 17 26 29
16 12 30 27 30 34 0 7 11 48 25 92 l25 78 -20 66 c-11 37 -35 86 -52 110 -18
24 -38 52 -44 62 -7 11 -26 28 -43 39 -17 10 -31 24 -31 30 0 7 -11 9 -27 6
-15 -3 -36 -2 -47 2 -12 5 -55 2 -96 -5z"/>
<path d="M2452 3405 c-15 -11 -21 -23 -17 -35 4 -13 -1 -19 -21 -24 -15 -4
-32 -2 -37 3 -23 23 -38 8 -83 -81 -54 -107 -74 -172 -74 -242 0 -41 7 -62 43
-119 23 -38 48 -80 55 -94 11 -19 17 -22 27 -13 11 9 14 6 17 -12 2 -14 9 -22
18 -20 7 2 76 6 152 9 101 5 138 9 138 19 0 7 -6 15 -12 17 -7 3 -2 6 12 6 18
1 21 4 12 13 -8 8 -1 22 30 57 57 65 77 110 84 190 8 87 -7 124 -81 196 -29
27 -56 60 -59 72 -15 48 -160 89 -204 58z"/>
<path d="M2297 3383 c-12 -12 -7 -22 8 -17 8 4 15 10 15 15 0 11 -14 12 -23 2z"/>
<path d="M4320 2936 c0 -19 93 -113 97 -99 6 16 -66 113 -83 113 -8 0 -14 -6
-14 -14z"/>
<path d="M3052 2913 c-21 -8 -42 -60 -42 -103 0 -45 34 -90 68 -90 48 0 88 28
110 79 26 56 21 76 -22 105 -24 15 -86 20 -114 9z"/>
<path d="M4252 2883 c4 -51 33 -54 33 -3 0 26 -5 36 -18 38 -16 3 -18 -2 -15
-35z"/>
<path d="M4187 2903 c-4 -3 -7 -19 -7 -34 0 -73 35 -82 38 -9 1 36 -2 50 -11
50 -8 0 -17 -3 -20 -7z"/>
<path d="M2200 2796 c0 -45 16 -55 24 -15 9 45 8 49 -9 49 -10 0 -15 -10 -15
-34z"/>
<path d="M2280 2811 c0 -20 31 -81 41 -81 15 0 -1 53 -22 75 -12 13 -19 15
-19 6z"/>
<path d="M4301 2779 c-21 -89 -21 -239 0 -239 12 0 11 57 -1 100 -7 24 -7 43
1 61 6 15 9 40 6 55 -2 16 -5 26 -6 23z"/>
<path d="M4102 2743 c-14 -26 -22 -157 -11 -174 6 -9 9 12 9 62 0 50 5 82 15
95 8 10 15 22 15 27 0 14 -19 7 -28 -10z"/>
<path d="M4187 2743 c-11 -10 -8 -203 2 -203 5 0 10 47 10 105 1 104 0 111
-12 98z"/>
<path d="M2185 2718 c3 -16 1 -28 -5 -28 -12 0 -14 -156 -1 -164 13 -8 23 167
11 195 -10 23 -10 23 -5 -3z"/>
<path d="M2250 2725 c0 -8 2 -15 4 -15 2 0 6 7 10 15 3 8 1 15 -4 15 -6 0 -10
-7 -10 -15z"/>
<path d="M4391 2730 c-16 -32 2 -190 21 -190 6 0 7 10 3 28 -5 15 -11 59 -15
97 -4 39 -8 68 -9 65z"/>
<path d="M2340 2695 c0 -8 2 -15 4 -15 2 0 6 7 10 15 3 8 1 15 -4 15 -6 0 -10
-7 -10 -15z"/>
<path d="M2077 2693 c-11 -11 -6 -75 8 -118 14 -39 14 -37 8 40 -6 86 -6 88
-16 78z"/>
<path d="M2253 2645 c0 -22 2 -30 4 -17 2 12 2 30 0 40 -3 9 -5 -1 -4 -23z"/>
<path d="M2273 2610 c0 -41 2 -58 4 -37 2 20 2 54 0 75 -2 20 -4 3 -4 -38z"/>
<path d="M2350 2595 c0 -8 5 -15 10 -15 6 0 10 7 10 15 0 8 -4 15 -10 15 -5 0
-10 -7 -10 -15z"/>
<path d="M2970 2230 c0 -5 14 -10 31 -10 17 0 28 4 24 10 -3 6 -17 10 -31 10
-13 0 -24 -4 -24 -10z"/>
<path d="M5640 5438 c0 -75 17 -67 22 10 2 37 -1 52 -9 52 -9 0 -13 -19 -13
-62z"/>
<path d="M5590 2225 c0 -8 5 -15 10 -15 6 0 10 7 10 15 0 8 -4 15 -10 15 -5 0
-10 -7 -10 -15z"/>
<path d="M1487 1803 c-10 -10 3 -147 19 -191 11 -33 12 -25 9 78 -4 106 -10
132 -28 113z"/>
</g>
</svg>
