<svg xmlns="http://www.w3.org/2000/svg" viewBox="0 0 70.22 21.62"><title>すばる</title><path fill="#444" d="M13.42,21.48,13,21.27a1.37,1.37,0,0,1-.19-1,8.18,8.18,0,0,0,.64-1.94,8.54,8.54,0,0,0,.14-2.16c-.42.35-.86.71-1.3,1.09a4.7,4.7,0,0,1-1.42.86,6.33,6.33,0,0,1-1.7.43,11.25,11.25,0,0,1-1.84.06,6.83,6.83,0,0,1-1.89-.4,4.22,4.22,0,0,1-1.58-1.08,3.28,3.28,0,0,1-.7-1.36A4.54,4.54,0,0,1,3,14.16a4.29,4.29,0,0,1,.47-1.4A4.89,4.89,0,0,1,6.64,10.3a7.53,7.53,0,0,1,2.66-.19,9,9,0,0,1,2,.5,7.39,7.39,0,0,1,1.77,1,12.88,12.88,0,0,0-.17-3.87L6,7.7l-5.28,0L.22,7.51A1.12,1.12,0,0,1,0,6.64l.33-.42L.6,6.08H6l6.4,0,.05-.3a7.6,7.6,0,0,0-.88-2.14q-.6-1-1.14-2L10.68,1a1.06,1.06,0,0,1,.89-.19,3.27,3.27,0,0,1,1,1c.24.39.47.79.69,1.21s.36,1,.55,1.42a10.13,10.13,0,0,1,.48,1.44L19,6l.45.31a1.53,1.53,0,0,1,.14.75l-.17.35a1.11,1.11,0,0,1-.58.26H14.62a21.12,21.12,0,0,1,.11,3.65,16,16,0,0,1-.28,2.16,6.56,6.56,0,0,1,.65,2,10.09,10.09,0,0,1,.1,2.21,13.49,13.49,0,0,1-.39,1.83,8.91,8.91,0,0,1-.69,1.76A1,1,0,0,1,13.42,21.48Zm-2.74-5.23a5.47,5.47,0,0,0,1.08-1,4.48,4.48,0,0,0,.7-1.17l.14-.47a4.78,4.78,0,0,0-1.45-1.27,4.76,4.76,0,0,0-1.61-.52,8.69,8.69,0,0,0-1.77-.09,4.42,4.42,0,0,0-1.31.39A3.88,3.88,0,0,0,5.31,13a2.76,2.76,0,0,0-.66,2,2,2,0,0,0,.71,1.15,3.56,3.56,0,0,0,1.47.62,6.68,6.68,0,0,0,1.67.11,7.85,7.85,0,0,0,1.17-.22A3.7,3.7,0,0,0,10.68,16.25Z"/><path fill="#444" d="M26.57,19.16,26,18.8a8.12,8.12,0,0,1-.14-1.5v-8l-.05-4.53.24-.37a1,1,0,0,1,.79-.17l.4.26q.3,6.33.24,12.77a7.29,7.29,0,0,1,2.25.54.83.83,0,0,1,.18.73l-.21.38-.44.21Zm10.55,2.22a6.88,6.88,0,0,1-1.93-.45,4.94,4.94,0,0,1-1.66-1.14,3.6,3.6,0,0,1-.67-1.36,5.32,5.32,0,0,1-.13-1.57,4.63,4.63,0,0,1,.6-1.55,7.58,7.58,0,0,1,1-1.31,7.3,7.3,0,0,1,2.32-1.36,11.62,11.62,0,0,1,2.61-.59h2.1l.64.08a15.74,15.74,0,0,0-.83-2.41l-1-2.09-6.19,0-1.2,0-.49-.26a1.13,1.13,0,0,1-.14-.71l.26-.35a3.86,3.86,0,0,1,1.57-.23h5.34c-.26-.77-.47-1.49-.63-2.18l.28-.47a.91.91,0,0,1,.75-.16l.35.16L41.33,6l.71,0,4.5,0,.44.28a.91.91,0,0,1,.19.57l-.23.44-.4.23H42.2c.31.91.61,1.75.9,2.51s.58,1.56.86,2.37l1.28.33a3.3,3.3,0,0,1,1.2.56,1,1,0,0,1,.14.7l-.25.43a1.09,1.09,0,0,1-.73.16l-1.27-.35c0,.69.05,1.37.05,2a5.22,5.22,0,0,1-.4,1.95,4.69,4.69,0,0,1-1.19,1.66,5.84,5.84,0,0,1-2.65,1.25A14.28,14.28,0,0,1,37.12,21.38ZM41.36,19a2.71,2.71,0,0,0,1.12-1.29,4.7,4.7,0,0,0,.25-1.11,11.37,11.37,0,0,0,.06-1.18l-.26-1.57a6.82,6.82,0,0,0-1.2-.19H39.41a9.77,9.77,0,0,0-2.28.58,6.4,6.4,0,0,0-2,1.25,4.17,4.17,0,0,0-.64,1,2.14,2.14,0,0,0-.2,1.14,2.31,2.31,0,0,0,.79,1.47,3.46,3.46,0,0,0,1.6.66,9.72,9.72,0,0,0,1.8.07A14.66,14.66,0,0,0,40,19.57,4.08,4.08,0,0,0,41.36,19Zm1.8-14.55-.4-.21-.18-.33V1.3l0-.78L43,0l.5,0,.4.19a1.7,1.7,0,0,1,.32,1.1V3.69l-.3.58A1.18,1.18,0,0,1,43.16,4.44Zm4,0-.4-.26-.19-.38V1.3l0-.66L46.82.2a.92.92,0,0,1,.7-.19L48,.27a1.68,1.68,0,0,1,.23,1V3.85a1,1,0,0,1-.44.54Z"/><path fill="#444" d="M59.92,21.62a6.37,6.37,0,0,1-1.64-.42,4.83,4.83,0,0,1-1.41-.94,3.3,3.3,0,0,1-.72-1.08A2.23,2.23,0,0,1,56,17.87a2.83,2.83,0,0,1,.86-1.46,5.38,5.38,0,0,1,2.48-1.05,18.26,18.26,0,0,1,2.77-.21,7.29,7.29,0,0,1,1.63.37,4,4,0,0,1,1.42.89,3.14,3.14,0,0,1,.72,1.21,4.52,4.52,0,0,1,.17,1.44A3.24,3.24,0,0,0,68,17.3a4.94,4.94,0,0,0,.41-1.42,8.62,8.62,0,0,0,.08-1.53,3.42,3.42,0,0,0-.42-1.14,2.78,2.78,0,0,0-.89-.92A8.62,8.62,0,0,0,64.4,11a16.62,16.62,0,0,0-3.1-.56,11.38,11.38,0,0,0-1.4-.05A1.83,1.83,0,0,1,58.72,10a1.28,1.28,0,0,1-.11-.72l.33-.4,7.28-4.36L61.3,4.39l-5.25.05-.44-.26a.93.93,0,0,1-.21-.8L55.7,3l.35-.16h5.21l8.22-.05L69.9,3a.84.84,0,0,1,.26.77L70,4.13,62.12,8.8a26,26,0,0,1,3.66,1A9.11,9.11,0,0,1,69,11.63a4.55,4.55,0,0,1,1,1.82,6.33,6.33,0,0,1,.2,2.12,6.77,6.77,0,0,1-.56,2.25,6.42,6.42,0,0,1-1.36,1.92,8.78,8.78,0,0,1-4,1.57A30.77,30.77,0,0,1,59.92,21.62Zm3.89-2,.45-.52,0-.75a2,2,0,0,0-.63-1,2.53,2.53,0,0,0-1.11-.5,7.29,7.29,0,0,0-1.26-.11,13.19,13.19,0,0,0-1.83.18,2.86,2.86,0,0,0-1.54.83,1.08,1.08,0,0,0-.19.77,2.83,2.83,0,0,0,.73.92,2.9,2.9,0,0,0,1.3.52,8.34,8.34,0,0,0,1.53.09,8.85,8.85,0,0,1,1.29-.11A2.57,2.57,0,0,0,63.81,19.63Z"/></svg>
